<?xml version="1.0" encoding="utf-8"?>
<!-- Generator: Adobe Illustrator 18.0.0, SVG Export Plug-In . SVG Version: 6.00 Build 0)  -->
<!DOCTYPE svg PUBLIC "-//W3C//DTD SVG 1.1//EN" "http://www.w3.org/Graphics/SVG/1.1/DTD/svg11.dtd">
<svg version="1.1" id="Layer_1" xmlns="http://www.w3.org/2000/svg" xmlns:xlink="http://www.w3.org/1999/xlink" x="0px" y="0px"
	 viewBox="0 0 1080 1080" enable-background="new 0 0 1080 1080" xml:space="preserve">
<g id="Layer_1_1_" display="none">
</g>
<g id="Layer_2">
	<g>
		<path fill="#2D4059" fill-opacity="0" d="M879.9,304.3c8.3,0,194.4,0,194.4,0l-35.9,61.9l-74,128c-17.5-28.3-48.9-47-84.5-47
			c-54.3,0-98.8,43.5-99.7,97.8H639.4C640.4,412.9,747.7,304.3,879.9,304.3z"/>
		<path fill="#00CF5D" d="M539.7,301.4c-8.3,0-194.4,0-194.4,0l35.9,61.9l74,128c17.5-28.3,48.9-47,84.5-47
			c55,0,99.7,44.8,99.7,99.7c0,54-42.9,97.8-96.2,99.7c-1.3,0-2.2,0-3.5,0c-27.3,0-52.1-11.1-70.2-28.9l41,71.2l55.9,96.9
			c17.5-1.9,34.3-5.7,50.5-11.1c55-18.7,101-56.5,129.9-105.8c21-35.6,33-77.2,33-121.7C780.1,411.4,672.5,301.4,539.7,301.4z"/>
		<path fill="#FFFFFF" d="M879.9,304.6c-50.8,0-97.8,16.2-136.9,43.5c34,34.3,57.8,78.8,66.4,128.3c18.1-17.8,42.9-28.9,70.2-28.9
			c35.6,0,67,18.7,84.5,47l74-128l35.9-61.9C1074,304.6,888.1,304.6,879.9,304.6z"/>
		<g>
			<polygon fill="#FFFFFF" points="264.3,686.4 260.2,679.4 225.8,619.7 103.9,619.4 9.5,782.7 319.6,782.7 283,718.8 			"/>
			<polygon fill="#FFFFFF" points="566.7,780.8 510.8,683.9 469.8,612.7 443.4,567 353.9,412.3 346.2,399.3 290.6,303 214.1,303 
				176.3,303 99.7,303 220.1,511.1 319.9,683.9 377,782.7 453.6,782.7 453.6,782.7 568,782.7 			"/>
		</g>
		<g>
			<path fill="#00CF5D" d="M839.5,710.9h-60c-0.3,0.3-0.6,1-1,1.3h60.4L839.5,710.9z"/>
			<path fill="#00CF5D" d="M778.2,712.2c-0.3,0.3-0.6,1-1,1.3h60.4l0.6-1.3H778.2z"/>
			<path fill="#00CF5D" d="M769.7,723.6c-0.3,0.3-0.6,1-1,1.3h62.9l0.6-1.3H769.7z"/>
			<path fill="#00CF5D" d="M769.7,723.6h62.6l0.6-1.3h-62.3C770.3,723,770,723.3,769.7,723.6z"/>
			<path fill="#00CF5D" d="M759.8,735.4h66.1l0.6-1.3h-65.4C760.8,734.4,760.1,734.7,759.8,735.4z"/>
			<path fill="#00CF5D" d="M759.8,735.4c-0.3,0.3-0.6,1-1.3,1.3h66.4l0.6-1.3H759.8z"/>
			<path fill="#00CF5D" d="M748.7,746.8c-0.3,0.3-1,1-1.3,1.3h71.2l0.6-1.3H748.7z"/>
			<path fill="#00CF5D" d="M748.7,746.8h70.5l0.6-1.3H750C749.6,745.8,749.3,746.2,748.7,746.8z"/>
			<path fill="#00CF5D" d="M736,758.2c-0.6,0.3-1,1-1.6,1.3h77.8l0.6-1.3H736z"/>
			<path fill="#00CF5D" d="M736,758.2h76.9l0.6-1.3h-76.2C736.9,757.3,736.3,757.9,736,758.2z"/>
			<path fill="#00CF5D" d="M721.1,769.7c-0.6,0.3-1.3,1-1.9,1.3h86.4l0.6-1.3H721.1z"/>
			<path fill="#00CF5D" d="M721.1,769.7h85.4l0.6-1.3h-84.5C722.3,769,721.7,769.3,721.1,769.7z"/>
			<path fill="#00CF5D" d="M703.3,781.1c-0.6,0.3-1.6,1-2.2,1.3h98.2l0.6-1.3H703.3z"/>
			<path fill="#00CF5D" d="M703.3,781.1h96.9l0.6-1.3h-95.3C704.5,780.5,703.9,780.8,703.3,781.1z"/>
		</g>
	</g>
</g>
</svg>
