<?xml version="1.0" encoding="utf-8"?>
<!-- Generator: Adobe Illustrator 18.0.0, SVG Export Plug-In . SVG Version: 6.00 Build 0)  -->
<!DOCTYPE svg PUBLIC "-//W3C//DTD SVG 1.1//EN" "http://www.w3.org/Graphics/SVG/1.1/DTD/svg11.dtd">
<svg version="1.1" xmlns="http://www.w3.org/2000/svg" xmlns:xlink="http://www.w3.org/1999/xlink" x="0px" y="0px"
	 viewBox="0 0 340 170" enable-background="new 0 0 340 170" xml:space="preserve">
<g id="Layer_1" display="none">
	
		<image display="inline" overflow="visible" width="480" height="360" xlink:href="88DD500D.jpg"  transform="matrix(6.0101 0.2493 -0.2493 6.0101 -1610.3339 -665.1942)">
	</image>
</g>
<g id="Layer_2">
	<g>
		<path opacity="0" fill="#2D4059" d="M277,10.8c2.6,0,61.2,0,61.2,0l-11.3,19.5l-23.3,40.3c-5.5-8.9-15.4-14.8-26.6-14.8
			c-17.1,0-31.1,13.7-31.4,30.8h-44.3C201.6,45,235.4,10.8,277,10.8z"/>
		<path fill="#2ECC71" d="M169.9,9.9c-2.6,0-61.2,0-61.2,0l11.3,19.5l23.3,40.3c5.5-8.9,15.4-14.8,26.6-14.8
			c17.3,0,31.4,14.1,31.4,31.4c0,17-13.5,30.8-30.3,31.4c-0.4,0-0.7,0-1.1,0c-8.6,0-16.4-3.5-22.1-9.1l12.9,22.4l17.6,30.5
			c5.5-0.6,10.8-1.8,15.9-3.5c17.3-5.9,31.8-17.8,40.9-33.3c6.6-11.2,10.4-24.3,10.4-38.3C245.6,44.5,211.7,9.9,169.9,9.9z"/>
		<path fill="#2D4059" d="M277,10.9c-16,0-30.8,5.1-43.1,13.7c10.7,10.8,18.2,24.8,20.9,40.4c5.7-5.6,13.5-9.1,22.1-9.1
			c11.2,0,21.1,5.9,26.6,14.8l23.3-40.3l11.3-19.5C338.1,10.9,279.6,10.9,277,10.9z"/>
		<g>
			<polygon fill="#2D4059" points="83.2,131.1 81.9,128.9 71.1,110.1 32.7,110 3,161.4 100.6,161.4 89.1,141.3 			"/>
			<polygon fill="#2D4059" points="178.4,160.8 160.8,130.3 147.9,107.9 139.6,93.5 111.4,44.8 109,40.7 91.5,10.4 67.4,10.4 
				55.5,10.4 31.4,10.4 69.3,75.9 100.7,130.3 118.7,161.4 142.8,161.4 142.8,161.4 178.8,161.4 			"/>
		</g>
		<g>
			<path fill="#2ECC71" d="M264.3,138.8h-18.9c-0.1,0.1-0.2,0.3-0.3,0.4h19L264.3,138.8z"/>
			<path fill="#2ECC71" d="M245,139.2c-0.1,0.1-0.2,0.3-0.3,0.4h19l0.2-0.4H245z"/>
			<path fill="#2ECC71" d="M242.3,142.8c-0.1,0.1-0.2,0.3-0.3,0.4h19.8l0.2-0.4H242.3z"/>
			<path fill="#2ECC71" d="M242.3,142.8H262l0.2-0.4h-19.6C242.5,142.6,242.4,142.7,242.3,142.8z"/>
			<path fill="#2ECC71" d="M239.2,146.5H260l0.2-0.4h-20.6C239.5,146.2,239.3,146.3,239.2,146.5z"/>
			<path fill="#2ECC71" d="M239.2,146.5c-0.1,0.1-0.2,0.3-0.4,0.4h20.9l0.2-0.4H239.2z"/>
			<path fill="#2ECC71" d="M235.7,150.1c-0.1,0.1-0.3,0.3-0.4,0.4h22.4l0.2-0.4H235.7z"/>
			<path fill="#2ECC71" d="M235.7,150.1h22.2l0.2-0.4h-22C236,149.8,235.9,149.9,235.7,150.1z"/>
			<path fill="#2ECC71" d="M231.7,153.7c-0.2,0.1-0.3,0.3-0.5,0.4h24.5l0.2-0.4H231.7z"/>
			<path fill="#2ECC71" d="M231.7,153.7h24.2l0.2-0.4h-24C232,153.4,231.8,153.6,231.7,153.7z"/>
			<path fill="#2ECC71" d="M227,157.3c-0.2,0.1-0.4,0.3-0.6,0.4h27.2l0.2-0.4H227z"/>
			<path fill="#2ECC71" d="M227,157.3h26.9l0.2-0.4h-26.6C227.4,157.1,227.2,157.2,227,157.3z"/>
			<path fill="#2ECC71" d="M221.4,160.9c-0.2,0.1-0.5,0.3-0.7,0.4h30.9l0.2-0.4H221.4z"/>
			<path fill="#2ECC71" d="M221.4,160.9h30.5l0.2-0.4h-30C221.8,160.7,221.6,160.8,221.4,160.9z"/>
		</g>
	</g>
</g>
</svg>
