<?xml version="1.0" encoding="utf-8"?>
<!-- Generator: Adobe Illustrator 18.0.0, SVG Export Plug-In . SVG Version: 6.00 Build 0)  -->
<!DOCTYPE svg PUBLIC "-//W3C//DTD SVG 1.1//EN" "http://www.w3.org/Graphics/SVG/1.1/DTD/svg11.dtd">
<svg version="1.1" xmlns="http://www.w3.org/2000/svg" xmlns:xlink="http://www.w3.org/1999/xlink" x="0px" y="0px"
	 viewBox="0 0 16 16" enable-background="new 0 0 16 16" xml:space="preserve">
<g id="Layer_1" display="none">
	
		<image display="inline" overflow="visible" width="480" height="360" xlink:href="70F286F3.jpg"  transform="matrix(6.0101 0.2493 -0.2493 6.0101 -2601.8945 -666.8909)">
	</image>
</g>
<g id="Layer_2">
	<g>
		<path opacity="0" fill="#FFFFFF" d="M13.1,4.4c0.1,0,2.9,0,2.9,0l-0.5,0.9l-1.1,1.9c-0.3-0.4-0.7-0.7-1.3-0.7
			c-0.8,0-1.5,0.7-1.5,1.5H9.5C9.5,6.1,11.1,4.4,13.1,4.4z"/>
		<path fill="#FFFFFF" d="M8,4.4c-0.1,0-2.9,0-2.9,0l0.5,0.9l1.1,1.9C7,6.8,7.4,6.5,8,6.5c0.8,0,1.5,0.7,1.5,1.5
			c0,0.8-0.6,1.5-1.4,1.5c0,0,0,0-0.1,0c-0.4,0-0.8-0.2-1.1-0.4l0.6,1.1l0.8,1.5c0.3,0,0.5-0.1,0.8-0.2c0.8-0.3,1.5-0.9,1.9-1.6
			c0.3-0.5,0.5-1.2,0.5-1.8C11.6,6,10,4.4,8,4.4z"/>
		<path fill="#FFFFFF" d="M13.1,4.4c-0.8,0-1.5,0.2-2.1,0.7c0.5,0.5,0.9,1.2,1,1.9c0.3-0.3,0.6-0.4,1.1-0.4c0.5,0,1,0.3,1.3,0.7
			l1.1-1.9L16,4.4C16,4.4,13.2,4.4,13.1,4.4z"/>
		<g>
			<polygon fill="#FFFFFF" points="3.8,10.2 3.8,10.1 3.3,9.2 1.4,9.2 0,11.6 4.7,11.6 4.1,10.7 			"/>
			<polygon fill="#FFFFFF" points="8.4,11.6 7.5,10.1 6.9,9.1 6.5,8.4 5.2,6 5.1,5.9 4.2,4.4 3.1,4.4 2.5,4.4 1.4,4.4 3.2,7.5 
				4.7,10.1 5.5,11.6 6.7,11.6 6.7,11.6 8.4,11.6 			"/>
		</g>
		<g>
			<path fill="#FFFFFF" d="M12.5,10.5h-0.9c0,0,0,0,0,0L12.5,10.5L12.5,10.5z"/>
			<path fill="#FFFFFF" d="M11.6,10.6C11.5,10.6,11.5,10.6,11.6,10.6l0.9,0l0,0H11.6z"/>
			<path fill="#FFFFFF" d="M11.4,10.7C11.4,10.7,11.4,10.7,11.4,10.7l0.9,0l0,0H11.4z"/>
			<path fill="#FFFFFF" d="M11.4,10.7h0.9l0,0L11.4,10.7C11.4,10.7,11.4,10.7,11.4,10.7z"/>
			<path fill="#FFFFFF" d="M11.3,10.9h1l0,0L11.3,10.9C11.3,10.9,11.3,10.9,11.3,10.9z"/>
			<path fill="#FFFFFF" d="M11.3,10.9C11.3,10.9,11.3,10.9,11.3,10.9l1,0l0,0H11.3z"/>
			<path fill="#FFFFFF" d="M11.1,11.1C11.1,11.1,11.1,11.1,11.1,11.1l1,0l0,0H11.1z"/>
			<path fill="#FFFFFF" d="M11.1,11.1h1.1l0,0L11.1,11.1C11.1,11.1,11.1,11.1,11.1,11.1z"/>
			<path fill="#FFFFFF" d="M10.9,11.2C10.9,11.2,10.9,11.3,10.9,11.2l1.1,0l0,0H10.9z"/>
			<path fill="#FFFFFF" d="M10.9,11.2h1.2l0,0L10.9,11.2C10.9,11.2,10.9,11.2,10.9,11.2z"/>
			<path fill="#FFFFFF" d="M10.7,11.4C10.7,11.4,10.7,11.4,10.7,11.4l1.3,0l0,0H10.7z"/>
			<path fill="#FFFFFF" d="M10.7,11.4H12l0,0L10.7,11.4C10.7,11.4,10.7,11.4,10.7,11.4z"/>
			<path fill="#FFFFFF" d="M10.4,11.6C10.4,11.6,10.4,11.6,10.4,11.6l1.4,0l0,0H10.4z"/>
			<path fill="#FFFFFF" d="M10.4,11.6h1.5l0,0L10.4,11.6C10.4,11.6,10.4,11.6,10.4,11.6z"/>
		</g>
	</g>
</g>
</svg>
