<?xml version="1.0" encoding="utf-8"?>
<!-- Generator: Adobe Illustrator 18.0.0, SVG Export Plug-In . SVG Version: 6.00 Build 0)  -->
<!DOCTYPE svg PUBLIC "-//W3C//DTD SVG 1.1//EN" "http://www.w3.org/Graphics/SVG/1.1/DTD/svg11.dtd">
<svg version="1.1" xmlns="http://www.w3.org/2000/svg" xmlns:xlink="http://www.w3.org/1999/xlink" x="0px" y="0px"
	 viewBox="0 0 340 170" enable-background="new 0 0 340 170" xml:space="preserve">
<g id="Layer_1" display="none">
	
		<image display="inline" overflow="visible" width="480" height="360" xlink:href="246CFD57.jpg"  transform="matrix(6.0101 0.2493 -0.2493 6.0101 -2006.8945 -665.8909)">
	</image>
</g>
<g id="Layer_2">
	<g>
		<path opacity="0" fill="#FFFFFF" d="M276.4,10.1c2.6,0,61.2,0,61.2,0l-11.3,19.5L303,69.8c-5.5-8.9-15.4-14.8-26.6-14.8
			c-17.1,0-31.1,13.7-31.4,30.8h-44.3C201.1,44.3,234.8,10.1,276.4,10.1z"/>
		<path fill="#FFFFFF" d="M169.4,9.3c-2.6,0-61.2,0-61.2,0l11.3,19.5L142.8,69c5.5-8.9,15.4-14.8,26.6-14.8
			c17.3,0,31.4,14.1,31.4,31.4c0,17-13.5,30.8-30.3,31.4c-0.4,0-0.7,0-1.1,0c-8.6,0-16.4-3.5-22.1-9.1l12.9,22.4l17.6,30.5
			c5.5-0.6,10.8-1.8,15.9-3.5c17.3-5.9,31.8-17.8,40.9-33.3c6.6-11.2,10.4-24.3,10.4-38.3C245,43.8,211.2,9.3,169.4,9.3z"/>
		<path fill="#FFFFFF" d="M276.4,10.2c-16,0-30.8,5.1-43.1,13.7c10.7,10.8,18.2,24.8,20.9,40.4c5.7-5.6,13.5-9.1,22.1-9.1
			c11.2,0,21.1,5.9,26.6,14.8l23.3-40.3l11.3-19.5C337.6,10.2,279.1,10.2,276.4,10.2z"/>
		<g>
			<polygon fill="#FFFFFF" points="82.6,130.4 81.4,128.2 70.6,109.4 32.1,109.4 2.4,160.7 100.1,160.7 88.5,140.6 			"/>
			<polygon fill="#FFFFFF" points="177.8,160.1 160.2,129.6 147.3,107.2 139,92.8 110.8,44.1 108.5,40 90.9,9.7 66.8,9.7 55,9.7 
				30.8,9.7 68.7,75.2 100.1,129.6 118.1,160.7 142.3,160.7 142.3,160.7 178.2,160.7 			"/>
		</g>
		<g>
			<path fill="#FFFFFF" d="M263.7,138.1h-18.9c-0.1,0.1-0.2,0.3-0.3,0.4h19L263.7,138.1z"/>
			<path fill="#FFFFFF" d="M244.5,138.5c-0.1,0.1-0.2,0.3-0.3,0.4h19l0.2-0.4H244.5z"/>
			<path fill="#FFFFFF" d="M241.8,142.1c-0.1,0.1-0.2,0.3-0.3,0.4h19.8l0.2-0.4H241.8z"/>
			<path fill="#FFFFFF" d="M241.8,142.1h19.7l0.2-0.4h-19.6C242,141.9,241.9,142,241.8,142.1z"/>
			<path fill="#FFFFFF" d="M238.7,145.8h20.8l0.2-0.4H239C238.9,145.5,238.8,145.6,238.7,145.8z"/>
			<path fill="#FFFFFF" d="M238.7,145.8c-0.1,0.1-0.2,0.3-0.4,0.4h20.9l0.2-0.4H238.7z"/>
			<path fill="#FFFFFF" d="M235.2,149.4c-0.1,0.1-0.3,0.3-0.4,0.4h22.4l0.2-0.4H235.2z"/>
			<path fill="#FFFFFF" d="M235.2,149.4h22.2l0.2-0.4h-22C235.4,149.1,235.3,149.2,235.2,149.4z"/>
			<path fill="#FFFFFF" d="M231.1,153c-0.2,0.1-0.3,0.3-0.5,0.4h24.5l0.2-0.4H231.1z"/>
			<path fill="#FFFFFF" d="M231.1,153h24.2l0.2-0.4h-24C231.4,152.7,231.3,152.9,231.1,153z"/>
			<path fill="#FFFFFF" d="M226.4,156.6c-0.2,0.1-0.4,0.3-0.6,0.4h27.2l0.2-0.4H226.4z"/>
			<path fill="#FFFFFF" d="M226.4,156.6h26.9l0.2-0.4H227C226.8,156.4,226.6,156.5,226.4,156.6z"/>
			<path fill="#FFFFFF" d="M220.8,160.2c-0.2,0.1-0.5,0.3-0.7,0.4h30.9l0.2-0.4H220.8z"/>
			<path fill="#FFFFFF" d="M220.8,160.2h30.5l0.2-0.4h-30C221.3,160,221,160.1,220.8,160.2z"/>
		</g>
	</g>
</g>
</svg>
